<?xml version="1.0" encoding="UTF-8"?><svg id="Layer_1" xmlns="http://www.w3.org/2000/svg" viewBox="0 0 244 52"><defs><style>.cls-1{fill:#fff;}</style></defs><rect width="244" height="52" rx="8" ry="8"/><g><g><path class="cls-1" d="M64.82,26.78h-8.38v7.15h-2.2v-15.84h2.2v6.67h8.38v-6.67h2.18v15.84h-2.18v-7.15Z"/><path class="cls-1" d="M73.31,33.71l-4.69-11.22h2.27l3.41,8.74,3.34-8.74h2.24l-6.38,15.84h-2.02l1.83-4.62Z"/><path class="cls-1" d="M83.36,22.49v1.74c.79-1.25,2.09-2,3.83-2,3.41,0,5.28,2.55,5.28,5.98s-1.87,5.99-5.28,5.99c-1.69,0-2.93-.7-3.74-1.87v6.01h-2.07v-15.84h1.98Zm3.5,9.88c2.33,0,3.45-1.74,3.45-4.16s-1.12-4.16-3.45-4.16-3.43,1.74-3.43,4.16,1.12,4.16,3.43,4.16Z"/><path class="cls-1" d="M94.05,28.21c0-3.43,2.11-5.98,5.44-5.98s5.41,2.53,5.41,6.03v.66h-8.67c.2,2.07,1.32,3.48,3.26,3.48,1.45,0,2.55-.73,3.08-1.94h2.11c-.73,2.27-2.64,3.74-5.19,3.74-3.32,0-5.44-2.55-5.44-5.99Zm8.67-1.03c-.31-1.89-1.41-3.15-3.23-3.15s-2.95,1.25-3.23,3.15h6.47Z"/><path class="cls-1" d="M107.03,22.49h1.98v1.98c.88-1.65,2.18-2.11,3.61-2.11h.88v1.98h-.95c-1.94,0-3.45,.81-3.45,3.63v5.96h-2.07v-11.44Z"/><path class="cls-1" d="M120.58,24.07c-.86,0-3.1,.44-3.1,3.48v6.38h-2.07v-11.44h1.98v1.65c.77-1.08,1.98-1.91,3.67-1.91,2.84,0,4.07,2.07,4.07,4.27v7.44h-2.07v-7.24c0-1.52-.77-2.62-2.49-2.62Z"/><path class="cls-1" d="M131.3,33.71l-4.69-11.22h2.27l3.41,8.74,3.34-8.74h2.24l-6.38,15.84h-2.02l1.83-4.62Z"/><path class="cls-1" d="M151.43,24.07c-.84,0-2.82,.44-2.82,3.48v6.38h-2.09v-7.24c0-1.52-.77-2.62-2.24-2.62-.84,0-2.84,.44-2.84,3.48v6.38h-2.07v-11.44h1.98v1.63c.66-1.08,1.74-1.89,3.41-1.89s2.86,.92,3.43,2.18c.7-1.21,1.89-2.18,3.72-2.18,2.6,0,3.85,2.07,3.85,4.27v7.44h-2.09v-7.24c0-1.52-.77-2.62-2.24-2.62Z"/><path class="cls-1" d="M162.16,28.6h2.22c.11,2.79,2.13,3.65,4.4,3.65s3.72-.9,3.72-2.71c0-1.36-.75-2.05-4.33-2.79-3.63-.75-5.5-1.87-5.5-4.75,0-2.55,2.33-4.18,5.5-4.18,4.4,0,6.21,2.33,6.27,5.21h-2.2c-.13-2.16-1.32-3.28-4.07-3.28-1.96,0-3.23,.86-3.23,2.22s.48,2.11,4.07,2.84c4.64,.95,5.77,2.38,5.77,4.71,0,2.86-2.42,4.67-6.01,4.67s-6.49-1.69-6.6-5.59Z"/><path class="cls-1" d="M179.92,18.97v3.52h3.04v1.76h-3.04v6.76c0,.81,.33,1.17,1.17,1.17h1.87v1.76h-2.31c-1.98,0-2.82-.79-2.82-2.68v-7h-2.09v-1.76h2.09v-3.52h2.09Z"/><path class="cls-1" d="M189.42,32.34c.86,0,3.1-.44,3.1-3.48v-6.38h2.07v11.44h-1.98v-1.65c-.77,1.08-1.98,1.92-3.67,1.92-2.84,0-4.07-2.07-4.07-4.27v-7.44h2.07v7.24c0,1.52,.77,2.62,2.49,2.62Z"/><path class="cls-1" d="M205.81,33.93v-1.74c-.79,1.25-2.09,2-3.83,2-3.41,0-5.28-2.55-5.28-5.99s1.87-5.98,5.28-5.98c1.69,0,2.93,.7,3.74,1.87v-6.01h2.07v15.84h-1.98Zm-3.5-1.56c2.31,0,3.43-1.74,3.43-4.16s-1.12-4.16-3.43-4.16-3.45,1.74-3.45,4.16,1.12,4.16,3.45,4.16Z"/><path class="cls-1" d="M210.39,18.09h2.07v2.33h-2.07v-2.33Zm0,4.4h2.09v11.44h-2.09v-11.44Z"/><path class="cls-1" d="M214.55,28.21c0-3.43,2.11-5.98,5.61-5.98s5.61,2.55,5.61,5.98-2.11,5.99-5.61,5.99-5.61-2.55-5.61-5.99Zm5.61,4.16c2.33,0,3.46-1.74,3.46-4.16s-1.12-4.16-3.46-4.16-3.45,1.74-3.45,4.16,1.12,4.16,3.45,4.16Z"/></g><path class="cls-1" d="M37.23,14c-.56,6.26-1.04,8.93-3.21,10.35-1.69,1.1-3.89,1.1-5.58,0-2.17-1.42-2.65-4.09-3.21-10.35-.88,9.88-1.59,10.83-9,12,7.41,1.17,8.12,2.12,9,12,.56-6.26,1.04-8.93,3.21-10.35,1.69-1.1,3.89-1.1,5.58,0,2.17,1.42,2.65,4.09,3.21,10.35,.88-9.88,1.59-10.83,9-12-7.41-1.17-8.12-2.12-9-12Z"/></g></svg>