<svg xmlns="http://www.w3.org/2000/svg" xmlns:xlink="http://www.w3.org/1999/xlink" width="1600" height="350" viewBox="0 0 1600 350"><defs><style>.a{clip-path:url(#b);}.b{fill:#f0f0f0;}.c,.e{fill:#fff;}.d{fill:#e3e3e3;}.e,.f{fill-rule:evenodd;}</style><clipPath id="b"><rect width="1600" height="350"/></clipPath></defs><g id="a" class="a"><rect class="b" width="1600" height="350" rx="30"/><rect class="c" width="400" height="90" rx="16" transform="translate(755 130)"/><rect width="218" height="90" rx="16" transform="translate(1183 130)"/><rect class="d" width="157" height="28" rx="14" transform="translate(920 161)"/><circle class="d" cx="30" cy="30" r="30" transform="translate(783 145)"/><path class="c" d="M-51.858.432c5.9,0,10.008-2.916,10.008-7.7,0-3.888-1.908-6.264-9.5-7.776-5.688-1.116-6.48-2.232-6.48-4.392s2.016-3.492,5.04-3.492c4.32,0,6.192,1.764,6.408,5.148h3.96c-.144-4.86-3.2-8.568-10.368-8.568-5.364,0-9.18,2.772-9.18,6.984,0,4.68,3.024,6.624,9.108,7.812,5.724,1.188,6.876,2.268,6.876,4.392,0,2.772-2.412,4.176-5.8,4.176-3.564,0-6.8-1.3-6.948-5.724h-4.032C-62.586-2.448-58.014.432-51.858.432Zm21.2,0a8.644,8.644,0,0,0,8.6-6.156h-3.78a4.887,4.887,0,0,1-4.824,2.988c-3.024,0-4.788-2.124-5.148-5.364h14.148V-9.18c0-5.868-3.456-9.972-9-9.972s-9,4.176-9,9.792S-36.2.432-30.654.432Zm-5.076-11.52c.468-2.952,2.232-4.9,5.076-4.9s4.608,1.944,5.076,4.9Zm29.916-.576V0H-2.07V-12.06c0-3.852-2.124-7.092-6.66-7.092a7.034,7.034,0,0,0-5.94,3.06V-18.72h-3.636V0h3.78V-10.368c0-4.608,3.348-5.436,4.788-5.436C-7-15.8-5.814-14.076-5.814-11.664ZM19.6,0V-25.92h-3.78v9.684a6.915,6.915,0,0,0-5.976-2.916c-5.508,0-8.532,4.176-8.532,9.792S4.338.432,9.846.432a7.049,7.049,0,0,0,6.12-3.1V0ZM5.2-9.36c0-3.852,1.728-6.552,5.364-6.552s5.364,2.7,5.364,6.552S14.2-2.808,10.566-2.808,5.2-5.508,5.2-9.36Zm27.864-1.8h20.34L43.434,0h4.824L59.85-12.96,48.258-25.92H43.434l9.972,11.16H33.066Z" transform="translate(1293.766 188.352)"/><path d="M-11.622-16.516H-1.474V-6.368h3.7V-16.516H12.378v-3.7H2.23V-30.368h-3.7V-20.22H-11.622Z" transform="translate(812.622 193.368)"/><rect class="c" width="250" height="90" rx="16" transform="translate(477 130)"/><rect class="c" width="250" height="90" rx="16" transform="translate(199 130)"/><path d="M382.361,14.5h18.58a1.94,1.94,0,0,1,1.45,3.219l-9.306,10.608h0l-.174.174a1.953,1.953,0,0,1-2.724-.174l-9.306-10.608a1.909,1.909,0,0,1-.492-1.276A1.987,1.987,0,0,1,382.361,14.5Z" transform="translate(125.062 153.5)"/><path d="M382.361,14.5h18.58a1.94,1.94,0,0,1,1.45,3.219l-9.306,10.608h0l-.174.174a1.953,1.953,0,0,1-2.724-.174l-9.306-10.608a1.909,1.909,0,0,1-.492-1.276A1.987,1.987,0,0,1,382.361,14.5Z" transform="translate(-152.938 153.5)"/><path d="M382.361,14.5h18.58a1.94,1.94,0,0,1,1.45,3.219l-9.306,10.608h0l-.174.174a1.953,1.953,0,0,1-2.724-.174l-9.306-10.608a1.909,1.909,0,0,1-.492-1.276A1.987,1.987,0,0,1,382.361,14.5Z" transform="translate(724.61 153.5)"/><rect class="d" width="143" height="28" rx="14" transform="translate(556 161)"/><rect class="d" width="143" height="28" rx="14" transform="translate(278 161)"/><g transform="translate(820.754 185.88)"><path class="e" d="M172.4,200.912l-40.492-40.59v55.947l11.265-10.939,7.877,18.657,12.594-5.362-7.337-17.713Z" transform="translate(-131.907 -160.322)"/><path class="f" d="M161.528,191.55,133,162.964v39.084l8.864-8.557,8.278,19.692,6.442-2.7-7.964-18.929Z" transform="translate(-129.511 -154.555)"/></g><path d="M1.3.432c6.444,0,9.756-4.356,10.44-9.54h-4C7.2-5.9,5.292-3.2,1.3-3.2-2.664-3.2-4.68-5.8-5.436-9.4H2.052V-12.06H-5.724a7.525,7.525,0,0,1-.036-.9c0-.54.036-1.08.072-1.62h7.74v-2.664H-5.256c.864-3.2,2.88-5.472,6.552-5.472A6.062,6.062,0,0,1,7.56-17.64h4.032c-.864-4.752-4.176-8.712-10.3-8.712-6.084,0-9.576,3.888-10.764,9.108h-3.348v2.664h2.952c-.036.54-.072,1.08-.072,1.62a7.525,7.525,0,0,0,.036.9h-2.916V-9.4h3.2C-8.6-3.816-5.076.432,1.3.432Z" transform="translate(880.18 187.96)"/></g></svg>