<svg xmlns="http://www.w3.org/2000/svg" xmlns:xlink="http://www.w3.org/1999/xlink" width="1600" height="350" viewBox="0 0 1600 350"><defs><style>.a{clip-path:url(#b);}.b{fill:#f0f0f0;}.c,.f{fill:#fff;}.d{fill:#e3e3e3;}.e{fill:none;stroke:#ededed;stroke-width:3px;}.f{fill-rule:evenodd;}</style><clipPath id="b"><rect width="1600" height="350"/></clipPath></defs><g id="a" class="a"><rect class="b" width="1600" height="350" rx="30"/><rect class="c" width="400" height="90" rx="16" transform="translate(998 130)"/><rect class="c" width="370" height="90" rx="16" transform="translate(600 130)"/><rect class="c" width="370" height="90" rx="16" transform="translate(202 130)"/><path d="M-50.778.432c5.9,0,10.008-2.916,10.008-7.7,0-3.888-1.908-6.264-9.5-7.776-5.688-1.116-6.48-2.232-6.48-4.392s2.016-3.492,5.04-3.492c4.32,0,6.192,1.764,6.408,5.148h3.96c-.144-4.86-3.2-8.568-10.368-8.568-5.364,0-9.18,2.772-9.18,6.984,0,4.68,3.024,6.624,9.108,7.812,5.724,1.188,6.876,2.268,6.876,4.392,0,2.772-2.412,4.176-5.8,4.176-3.564,0-6.8-1.3-6.948-5.724h-4.032C-61.506-2.448-56.934.432-50.778.432Zm14.9-24.912v5.76h-3.348v3.1h3.348V-4.5c0,3.312,1.62,4.5,4.788,4.5H-27.2V-3.1h-3.024c-1.332,0-1.872-.54-1.872-1.836V-15.624h4.9v-3.1h-4.9v-5.76ZM-12.438,0h3.564V-13.644c0-3.384-2.412-5.508-7.452-5.508-4.248,0-7.992,1.8-8.1,6.3h3.744c.108-2.448,2.2-3.2,4.356-3.2,2.52,0,3.744.828,3.744,2.808v1.224l-5.652,1.044c-4.5.828-6.948,2.52-6.948,5.832,0,3.6,2.664,5.58,6.8,5.58A7.17,7.17,0,0,0-12.438-2.2Zm-8.856-5.256c0-1.908,1.44-2.448,3.708-2.916l5-1.044v1.872c0,3.348-2.664,4.752-5.22,4.752C-20.214-2.592-21.294-3.672-21.294-5.256ZM-5.2,0h3.78V-9.54c0-4.5,2.376-5.832,5.544-5.832H5.67v-3.564H4.23a6.043,6.043,0,0,0-5.8,3.456v-3.24H-5.2ZM8.73,0h3.78V-9.54c0-4.5,2.376-5.832,5.544-5.832H19.6v-3.564h-1.44a6.043,6.043,0,0,0-5.8,3.456v-3.24H8.73Zm22.1.432a8.644,8.644,0,0,0,8.6-6.156h-3.78a4.887,4.887,0,0,1-4.824,2.988c-3.024,0-4.788-2.124-5.148-5.364H39.834V-9.18c0-5.868-3.456-9.972-9-9.972s-9,4.176-9,9.792S25.29.432,30.834.432Zm-5.076-11.52c.468-2.952,2.232-4.9,5.076-4.9s4.608,1.944,5.076,4.9ZM60.642,0V-25.92h-3.78v9.684a6.915,6.915,0,0,0-5.976-2.916c-5.508,0-8.532,4.176-8.532,9.792S45.378.432,50.886.432a7.049,7.049,0,0,0,6.12-3.1V0Zm-14.4-9.36c0-3.852,1.728-6.552,5.364-6.552s5.364,2.7,5.364,6.552-1.728,6.552-5.364,6.552S46.242-5.508,46.242-9.36Z" transform="translate(1151.325 188.352)"/><path class="d" d="M270.225,9.781a3.2,3.2,0,0,1,5.739,0l5.285,10.675a3.277,3.277,0,0,0,2.4,1.763l11.8,1.707a3.183,3.183,0,0,1,1.76,5.445L288.67,37.7a3.28,3.28,0,0,0-.936,2.829l2.029,11.744a3.2,3.2,0,0,1-4.645,3.363l-10.541-5.552a3.283,3.283,0,0,0-2.989,0l-10.544,5.552a3.2,3.2,0,0,1-4.643-3.363l2.029-11.744a3.111,3.111,0,0,0-.936-2.829l-8.541-8.328a3.2,3.2,0,0,1,1.763-5.445l11.8-1.707a3.174,3.174,0,0,0,2.4-1.763Z" transform="translate(775.909 143)"/><path d="M400.9,14.5h-18.58a1.94,1.94,0,0,0-1.45,3.219l9.306,10.608h0l.174.174a1.953,1.953,0,0,0,2.724-.174l9.306-10.608a1.909,1.909,0,0,0,.492-1.276A1.987,1.987,0,0,0,400.9,14.5Z" transform="translate(966.676 153.5)"/><path d="M400.9,14.5h-18.58a1.94,1.94,0,0,0-1.45,3.219l9.306,10.608h0l.174.174a1.953,1.953,0,0,0,2.724-.174l9.306-10.608a1.909,1.909,0,0,0,.492-1.276A1.987,1.987,0,0,0,400.9,14.5Z" transform="translate(538.676 153.5)"/><path d="M400.9,14.5h-18.58a1.94,1.94,0,0,0-1.45,3.219l9.306,10.608h0l.174.174a1.953,1.953,0,0,0,2.724-.174l9.306-10.608a1.909,1.909,0,0,0,.492-1.276A1.987,1.987,0,0,0,400.9,14.5Z" transform="translate(140.676 153.5)"/><rect class="d" width="60" height="48" rx="24" transform="translate(1231 151)"/><rect class="d" width="60" height="48" rx="24" transform="translate(803 151)"/><rect class="d" width="60" height="48" rx="24" transform="translate(405 151)"/><rect class="d" width="157" height="28" rx="14" transform="translate(628 161)"/><rect class="d" width="157" height="28" rx="14" transform="translate(230 161)"/><line class="e" y2="90" transform="translate(493.033 130)"/><line class="e" y2="90" transform="translate(891.033 130)"/><line class="e" y2="90" transform="translate(1319.033 130)"/><g transform="translate(810.509 93.149)"><path class="f" d="M442.764,136.963c-1.17-1.478-2.589-4.5-5.12-8.178-1.434-2.076-4.991-5.985-6.051-7.973a5.2,5.2,0,0,1-.6-4,5.43,5.43,0,0,1,5.871-4.331c2.138.2,3.953,1.614,5.585,2.948a26.906,26.906,0,0,1,2.926,3.249c.671.807.836,1.141,1.551,2.1.95,1.265,1.247,1.892.884.5-.293-2.043-.77-5.534-1.463-8.622-.528-2.34-.656-2.706-1.159-4.5-.532-1.914-.8-3.253-1.3-5.281a58.73,58.73,0,0,1-1.137-6.011c-.235-2.255-.359-5.93,1.089-7.621a4.878,4.878,0,0,1,5.343-.906c2.109,1.067,3.308,4.133,3.858,5.358a31.793,31.793,0,0,1,2.127,8.079c.675,4.25,1.918,10.147,1.962,11.387.1-1.518-.282-4.723-.018-6.179a4.431,4.431,0,0,1,2.747-3.279,8.064,8.064,0,0,1,3.774-.227,5.216,5.216,0,0,1,3.157,2.057c1.493,2.571,1.518,7.826,1.581,7.547.356-1.551.293-5.065,1.17-6.528a5.165,5.165,0,0,1,2.831-1.977,11.566,11.566,0,0,1,3.975-.033,5.8,5.8,0,0,1,2.791,2.01c.9,1.416,1.408,5.428,1.559,6.832.062.579.308-1.617,1.21-3.033,1.672-2.633,7.595-3.147,7.822,2.633.1,2.7.081,2.571.081,4.386,0,2.131-.048,3.411-.165,4.951a48.186,48.186,0,0,1-1,7.18,24.328,24.328,0,0,1-2.684,5.7s-4.426,5.152-4.911,7.474a16.641,16.641,0,0,0-.422,3.975,14.55,14.55,0,0,0,.5,3.8,23.977,23.977,0,0,1-5.083.143c-1.614-.257-3.609-3.466-4.122-4.445a1.561,1.561,0,0,0-2.809-.1c-.928,1.577-2.923,4.408-4.331,4.588-2.754.345-8.468.128-12.938.081,0,0,.763-4.166-.935-5.6-1.258-1.067-3.422-3.231-4.716-4.368Z" transform="translate(1.123 1.124)"/><g transform="translate(430.423 87.49)"><path d="M492.394,114.048c-.169-4.3-2.9-5.5-4.063-5.813a6.277,6.277,0,0,0-5.747,1.39,10.08,10.08,0,0,0-1.023-2.783,7.259,7.259,0,0,0-3.8-2.7,13.112,13.112,0,0,0-4.537.033,6.719,6.719,0,0,0-3.649,2.343c-.1-.227-.213-.44-.33-.645a6.74,6.74,0,0,0-4.177-2.791,9.519,9.519,0,0,0-4.533.26,5.132,5.132,0,0,0-2.343,1.54c-.139-.77-.268-1.526-.378-2.233a33.234,33.234,0,0,0-2.384-8.794c-.7-1.592-2-4.551-4.426-5.78a6.421,6.421,0,0,0-7.221,1.28c-1.4,1.639-1.885,4.591-1.449,8.783a60.352,60.352,0,0,0,1.174,6.223l.447,1.878c.271,1.141.513,2.167.865,3.447l.205.722c.337,1.207.5,1.757.935,3.7.249,1.111.469,2.277.664,3.411a16.554,16.554,0,0,0-2.079-2.167c-1.955-1.6-3.92-3.059-6.414-3.29a6.923,6.923,0,0,0-7.544,5.637,6.676,6.676,0,0,0,.763,4.954,40.279,40.279,0,0,0,3.741,5.053c.939,1.155,1.841,2.259,2.4,3.07,1.309,1.907,2.318,3.634,3.146,5.057a29.718,29.718,0,0,0,2.035,3.2c.022.029.044.051.066.077l3.553,3.92c.583.513,1.346,1.24,2.123,1.977.95.906,1.918,1.819,2.619,2.417.59.5.689,2.578.407,4.133a1.548,1.548,0,0,0,1.507,1.823l3.238.051c1.68.029,3.385.059,4.958.059a43.254,43.254,0,0,0,4.951-.2c2.182-.271,4.36-3.462,5.578-5.3.26.491,2.611,4.83,5.244,5.248a23.851,23.851,0,0,0,5.527-.132,1.571,1.571,0,0,0,1.093-.678,1.546,1.546,0,0,0,.2-1.265,12.6,12.6,0,0,1-.447-3.3c.029-.473.037-.818.044-1.115a11.357,11.357,0,0,1,.345-2.64c.279-1.328,2.839-4.76,4.668-6.9a25.558,25.558,0,0,0,2.9-6.161,50.821,50.821,0,0,0,1.049-7.489c.121-1.577.169-2.89.169-5.068v-.81C492.478,116.619,492.478,116.3,492.394,114.048Zm-3.011,3.623v.821c0,2.079-.048,3.33-.161,4.837a47.629,47.629,0,0,1-.935,6.872,23.465,23.465,0,0,1-2.376,5.119c-.785.909-4.716,5.582-5.252,8.163a14.386,14.386,0,0,0-.411,3.2l-.037,1a11.812,11.812,0,0,0,.169,2.523,14.95,14.95,0,0,1-2.963-.011c-.6-.136-2.145-2.01-3-3.634a3.1,3.1,0,0,0-2.688-1.76,3.33,3.33,0,0,0-2.824,1.6c-1.331,2.263-2.75,3.711-3.191,3.84a86.487,86.487,0,0,1-9.465.117l-1.562-.022c.07-1.665-.147-3.986-1.65-5.252-.66-.568-1.58-1.441-2.486-2.3-.807-.763-1.6-1.515-2.083-1.925l-3.392-3.759a28.011,28.011,0,0,1-1.76-2.809c-.862-1.474-1.911-3.268-3.275-5.248-.594-.865-1.548-2.043-2.545-3.268a40.9,40.9,0,0,1-3.407-4.544,3.748,3.748,0,0,1-.44-3.055,3.931,3.931,0,0,1,4.2-3.018c1.632.15,3.117,1.269,4.749,2.607a20.524,20.524,0,0,1,2.34,2.578l.374.458c.374.451.576.737.825,1.093l1.141,1.577c.491.675,1.228,1.7,2.446,1.126a1.845,1.845,0,0,0,.744-2.406l-.073-.521c-.3-2.12-.763-5.321-1.412-8.222-.458-2.032-.62-2.607-.979-3.865l-.2-.711c-.341-1.236-.576-2.226-.833-3.323l-.455-1.9a57.391,57.391,0,0,1-1.1-5.813c-.326-3.128-.055-5.541.722-6.454a3.389,3.389,0,0,1,3.477-.532c1.441.73,2.49,3.117,3.147,4.606a30.411,30.411,0,0,1,2.01,7.7c.293,1.867.7,4.052,1.071,6.025.4,2.149.851,4.584.869,5.167a1.552,1.552,0,0,0,1.522,1.5,1.762,1.762,0,0,0,1.566-1.445c.044-.678,0-1.665-.044-2.7a20.829,20.829,0,0,1,.007-3.312,2.938,2.938,0,0,1,1.665-2.072,6.448,6.448,0,0,1,3.026-.194,3.826,3.826,0,0,1,2.127,1.32c.671,1.155,1.119,3.323,1.331,6.44.033.436.125,1.775,1.463,1.881A1.463,1.463,0,0,0,471,114.547a19.116,19.116,0,0,0,.308-2.358,12.72,12.72,0,0,1,.678-3.719,3.812,3.812,0,0,1,1.779-1.251,10.027,10.027,0,0,1,3.4-.04,4.622,4.622,0,0,1,1.79,1.32,20.547,20.547,0,0,1,1.328,6.176,1.671,1.671,0,0,0,1.452,1.467c1.328.059,1.643-1.155,1.764-1.625a8.639,8.639,0,0,1,.833-2.215,3.124,3.124,0,0,1,3.19-1.082c1.4.374,1.738,1.808,1.782,2.945C489.386,116.34,489.386,116.644,489.383,117.671Z" transform="translate(-430.422 -87.49)"/><path d="M444.471,97.377a1.546,1.546,0,0,0-1.544,1.544v14.255a1.546,1.546,0,1,0,3.091,0V98.921A1.547,1.547,0,0,0,444.471,97.377Z" transform="translate(-397.07 -61.119)"/><path d="M442.192,97.392c-.921-.18-1.551.7-1.548,1.551l.066,14.313a1.547,1.547,0,0,0,1.544,1.537,1.641,1.641,0,0,0,1.548-1.555l-.066-14.31A1.545,1.545,0,0,0,442.192,97.392Z" transform="translate(-403.159 -61.142)"/><path d="M439.963,97.41h-.007a1.541,1.541,0,0,0-1.536,1.551l.084,14.119a1.545,1.545,0,0,0,1.548,1.537h.011a1.541,1.541,0,0,0,1.533-1.551l-.084-14.119A1.546,1.546,0,0,0,439.963,97.41Z" transform="translate(-409.094 -61.031)"/></g></g></g></svg>