<svg xmlns="http://www.w3.org/2000/svg" viewBox="0 0 300 130"><g fill="none" fill-rule="evenodd"><path fill="#F6F8FA" d="M15.383 0h269.234c5.349 0 7.289.557 9.244 1.603a10.904 10.904 0 0 1 4.536 4.536c1.046 1.955 1.603 3.895 1.603 9.244v99.234c0 5.349-.557 7.289-1.603 9.244a10.904 10.904 0 0 1-4.536 4.536c-1.955 1.046-3.895 1.603-9.244 1.603H15.383c-5.349 0-7.289-.557-9.244-1.603a10.904 10.904 0 0 1-4.536-4.536C.557 121.906 0 119.966 0 114.617V15.383c0-5.349.557-7.289 1.603-9.244a10.904 10.904 0 0 1 4.536-4.536C8.094.557 10.034 0 15.383 0Z"/><g fill="#1F2328"><path d="M66.5 46c-.93 10.435-1.742 14.893-5.353 17.247a8.487 8.487 0 0 1-9.294 0C48.242 60.882 47.43 56.423 46.5 46c-1.458 16.47-2.647 18.047-15 20 12.353 1.953 13.542 3.53 15 20 .93-10.435 1.742-14.893 5.353-17.247a8.487 8.487 0 0 1 9.294 0C64.758 71.118 65.57 75.577 66.5 86c1.458-16.47 2.647-18.047 15-20-12.353-1.953-13.542-3.53-15-20"/><g fill-rule="nonzero"><path d="M93.594 53.52h4.57v9.846h11.397V53.52h4.57V78h-4.57V67.514H98.164V78h-4.57zM123.555 77.578l-7.147-17.258h4.603l4.638 12.328 4.583-12.328h4.604L124.758 84.8h-4.14zM146.58 59.912c-1.247 0-2.335.244-3.265.731-.929.487-1.71 1.184-2.346 2.091V60.32h-4.114V84.8h4.284v-9.01a5.932 5.932 0 0 0 2.261 1.938c.918.453 1.978.68 3.18.68 1.677 0 3.11-.397 4.3-1.19 1.19-.793 2.091-1.887 2.703-3.281.612-1.394.918-2.986.918-4.777 0-1.79-.306-3.383-.918-4.777-.612-1.394-1.513-2.488-2.703-3.281-1.19-.793-2.623-1.19-4.3-1.19Zm-.987 3.57c1.02 0 1.865.232 2.533.697.67.465 1.173 1.122 1.513 1.972.34.85.51 1.853.51 3.009s-.17 2.159-.51 3.009c-.34.85-.844 1.507-1.513 1.972-.668.465-1.513.697-2.533.697s-1.864-.232-2.533-.697c-.668-.465-1.167-1.122-1.496-1.972-.328-.85-.493-1.853-.493-3.009s.165-2.159.493-3.009c.33-.85.828-1.507 1.496-1.972.67-.465 1.513-.697 2.533-.697ZM165.401 78.408c-1.776 0-3.328-.399-4.654-1.197a7.862 7.862 0 0 1-3.036-3.298c-.698-1.4-1.048-2.985-1.048-4.753 0-1.768.35-3.352 1.048-4.753.698-1.4 1.71-2.5 3.036-3.298s2.878-1.197 4.654-1.197c1.796 0 3.354.394 4.676 1.183 1.321.789 2.329 1.906 3.022 3.353.694 1.446 1.04 3.13 1.04 5.052v1.02h-13.212c.123.925.374 1.723.755 2.394.38.67.886 1.192 1.516 1.564.63.371 1.365.557 2.203.557 1.03 0 1.898-.213 2.605-.639a4.13 4.13 0 0 0 1.618-1.809h4.182c-.575 1.786-1.598 3.203-3.07 4.25-1.47 1.047-3.25 1.571-5.335 1.571Zm4.42-10.962c-.226-1.292-.718-2.308-1.475-3.05-.757-.74-1.739-1.111-2.945-1.111-1.205 0-2.186.37-2.943 1.112-.757.74-1.25 1.757-1.476 3.05h8.84ZM177.043 60.32h4.135v3.053c.575-1.16 1.312-1.994 2.21-2.499.897-.505 1.942-.758 3.134-.758h1.394v3.95h-1.57c-1.048 0-1.942.17-2.683.507-.741.338-1.318.901-1.73 1.69-.413.79-.62 1.85-.62 3.183V78h-4.27V60.32ZM190.609 60.32h4.134v2.441a7.266 7.266 0 0 1 2.373-2.077c.939-.515 2.013-.772 3.224-.772 1.346 0 2.49.286 3.43.857.941.571 1.653 1.38 2.136 2.424.482 1.045.724 2.268.724 3.669V78h-4.25V67.351c0-1.142-.277-2.046-.83-2.713-.553-.666-1.41-1-2.57-1-.63 0-1.255.141-1.874.422-.619.281-1.145.769-1.577 1.462-.433.693-.65 1.614-.65 2.76V78h-4.27V60.32ZM215.795 77.578 208.65 60.32h4.603l4.638 12.328 4.583-12.328h4.604L217 84.8h-4.14zM229.096 60.32h4.135v2.516a6.417 6.417 0 0 1 2.152-2.142c.868-.521 1.903-.782 3.104-.782 1.242 0 2.308.289 3.196.867.889.578 1.569 1.402 2.04 2.472a7.506 7.506 0 0 1 2.431-2.431c.982-.605 2.114-.908 3.397-.908 1.228 0 2.29.289 3.185.867.896.578 1.58 1.392 2.05 2.441.472 1.05.708 2.263.708 3.642V78h-4.27V67.351c0-1.12-.257-2.018-.769-2.696-.512-.677-1.267-1.016-2.264-1.016-.998 0-1.874.352-2.629 1.057-.754.705-1.132 1.9-1.132 3.587V78h-4.27V67.351c0-1.12-.256-2.018-.768-2.696-.513-.677-1.267-1.016-2.265-1.016-.997 0-1.873.352-2.628 1.057-.755.705-1.132 1.9-1.132 3.587V78h-4.27V60.32Z"/></g></g></g></svg>