<svg xmlns="http://www.w3.org/2000/svg" viewBox="0 0 300 130"><g fill="none" fill-rule="evenodd"><path fill="#151B23" d="M15.383 0h269.234c5.349 0 7.289.557 9.244 1.603a10.904 10.904 0 0 1 4.536 4.536c1.046 1.955 1.603 3.895 1.603 9.244v99.234c0 5.349-.557 7.289-1.603 9.244a10.904 10.904 0 0 1-4.536 4.536c-1.955 1.046-3.895 1.603-9.244 1.603H15.383c-5.349 0-7.289-.557-9.244-1.603a10.904 10.904 0 0 1-4.536-4.536C.557 121.906 0 119.966 0 114.617V15.383c0-5.349.557-7.289 1.603-9.244a10.904 10.904 0 0 1 4.536-4.536C8.094.557 10.034 0 15.383 0Z"/><g fill="#FFF"><path d="M66.5 46c-.93 10.435-1.742 14.893-5.353 17.247a8.487 8.487 0 0 1-9.294 0C48.242 60.882 47.43 56.423 46.5 46c-1.458 16.47-2.647 18.047-15 20 12.353 1.953 13.542 3.53 15 20 .93-10.435 1.742-14.893 5.353-17.247a8.487 8.487 0 0 1 9.294 0C64.758 71.118 65.57 75.577 66.5 86c1.458-16.47 2.647-18.047 15-20-12.353-1.953-13.542-3.53-15-20"/><g fill-rule="nonzero"><path d="M93.649 53.52h4.175v10.003h11.914V53.52h4.175V78h-4.175V67.331H97.824V78h-4.175zM123.429 77.599l-7.171-17.279h4.227l4.855 12.706 4.78-12.706h4.226L124.34 84.8h-3.811zM145.9 59.912c-1.27 0-2.375.25-3.316.748-.94.499-1.728 1.213-2.363 2.142V60.32h-3.774V84.8h3.91v-9.078a6.203 6.203 0 0 0 2.312 1.989c.93.465 2.006.697 3.23.697 1.7 0 3.15-.397 4.352-1.19 1.202-.793 2.114-1.887 2.737-3.281.624-1.394.935-2.986.935-4.777 0-1.79-.311-3.383-.935-4.777-.623-1.394-1.535-2.488-2.737-3.281-1.201-.793-2.652-1.19-4.352-1.19Zm-.817 3.332c1.088 0 1.984.244 2.686.731.703.487 1.236 1.173 1.598 2.057.363.884.544 1.927.544 3.128s-.181 2.244-.544 3.128c-.362.884-.895 1.57-1.598 2.057-.702.487-1.598.731-2.686.731-1.065 0-1.955-.244-2.669-.731s-1.246-1.173-1.598-2.057c-.351-.884-.527-1.927-.527-3.128s.176-2.244.527-3.128c.352-.884.884-1.57 1.598-2.057.714-.487 1.604-.731 2.67-.731ZM164.793 78.408c-1.74 0-3.266-.398-4.575-1.195-1.309-.797-2.31-1.896-3.004-3.298-.693-1.402-1.04-2.987-1.04-4.755 0-1.768.347-3.353 1.04-4.755.694-1.402 1.695-2.501 3.004-3.298 1.31-.797 2.834-1.195 4.575-1.195 1.754 0 3.284.395 4.59 1.185 1.305.79 2.303 1.903 2.994 3.339.69 1.436 1.035 3.096 1.035 4.979v1.02h-13.284c.12.977.377 1.822.77 2.535a4.36 4.36 0 0 0 1.58 1.666c.66.397 1.431.596 2.315.596 1.06 0 1.964-.23 2.71-.692.745-.46 1.309-1.108 1.69-1.943h3.875c-.573 1.782-1.586 3.196-3.037 4.242-1.452 1.046-3.198 1.569-5.238 1.569Zm4.607-10.924c-.227-1.36-.734-2.433-1.523-3.218-.79-.786-1.817-1.178-3.084-1.178-1.267 0-2.295.392-3.084 1.178-.789.785-1.296 1.858-1.523 3.218h9.214ZM176.431 60.32h3.78v3.03c.597-1.166 1.35-1.996 2.262-2.491.911-.495 1.964-.743 3.158-.743h1.377v3.652h-1.526c-1.052 0-1.956.17-2.713.511-.757.341-1.35.913-1.779 1.714-.428.801-.642 1.877-.642 3.228V78h-3.917V60.32ZM189.793 60.32h3.78v2.468a7.224 7.224 0 0 1 2.375-2.097c.942-.52 2.023-.779 3.242-.779 1.367 0 2.52.29 3.462.872a5.44 5.44 0 0 1 2.12 2.417c.472 1.03.708 2.21.708 3.538V78h-3.893V67.174c0-1.174-.292-2.104-.877-2.791-.585-.687-1.477-1.03-2.676-1.03-.625 0-1.265.14-1.92.418-.653.279-1.218.783-1.692 1.513-.475.73-.712 1.715-.712 2.955V78h-3.917V60.32ZM214.752 77.599l-7.17-17.279h4.226l4.855 12.706 4.78-12.706h4.227L215.664 84.8h-3.812zM227.77 60.32h3.781v2.516a6.264 6.264 0 0 1 2.137-2.142c.87-.521 1.91-.782 3.123-.782 1.26 0 2.334.295 3.221.884.888.59 1.565 1.416 2.032 2.479a7.304 7.304 0 0 1 2.397-2.448c.977-.61 2.114-.915 3.41-.915 1.244 0 2.314.295 3.21.884.895.59 1.573 1.4 2.034 2.434.462 1.034.692 2.204.692 3.51V78h-3.917V67.174c0-1.151-.27-2.076-.814-2.774-.542-.698-1.33-1.047-2.36-1.047-1.01 0-1.923.362-2.741 1.086-.819.724-1.228 1.99-1.228 3.8V78h-3.917V67.174c0-1.151-.271-2.076-.814-2.774-.543-.698-1.33-1.047-2.36-1.047-1.01 0-1.923.362-2.741 1.086-.819.724-1.228 1.99-1.228 3.8V78h-3.917V60.32Z"/></g></g></g></svg>