<svg xmlns="http://www.w3.org/2000/svg" viewBox="0 0 300 130"><g fill="none" fill-rule="evenodd"><path fill="#151B23" d="M15.383 0h269.234c5.349 0 7.289.557 9.244 1.603a10.904 10.904 0 0 1 4.536 4.536c1.046 1.955 1.603 3.895 1.603 9.244v99.234c0 5.349-.557 7.289-1.603 9.244a10.904 10.904 0 0 1-4.536 4.536c-1.955 1.046-3.895 1.603-9.244 1.603H15.383c-5.349 0-7.289-.557-9.244-1.603a10.904 10.904 0 0 1-4.536-4.536C.557 121.906 0 119.966 0 114.617V15.383c0-5.349.557-7.289 1.603-9.244a10.904 10.904 0 0 1 4.536-4.536C8.094.557 10.034 0 15.383 0Z"/><g fill="#FFF" fill-rule="nonzero" opacity=".332"><path d="M73.173 60.04h5.008c1.505 0 2.647.318 3.427.954.78.636 1.17 1.48 1.17 2.534 0 .593-.129 1.118-.387 1.574-.258.456-.647.826-1.168 1.112.698.276 1.222.679 1.572 1.208.349.529.523 1.151.523 1.866 0 1.145-.387 2.05-1.16 2.715-.775.665-1.92.997-3.437.997h-5.548V60.04Zm5.573 11.225c.862 0 1.5-.172 1.917-.515.417-.343.625-.842.625-1.498 0-.655-.208-1.154-.625-1.497-.416-.343-1.055-.515-1.917-.515h-3.57v4.025h3.57Zm-.482-5.724c.861 0 1.5-.166 1.917-.497.416-.331.624-.793.624-1.386 0-.593-.208-1.055-.624-1.386-.416-.331-1.056-.497-1.917-.497h-3.089v3.766h3.089ZM88.905 73.216c-.902 0-1.695-.21-2.38-.632a4.154 4.154 0 0 1-1.573-1.746c-.364-.743-.547-1.582-.547-2.518 0-.936.183-1.775.547-2.518a4.154 4.154 0 0 1 1.574-1.746c.684-.421 1.477-.632 2.38-.632.907 0 1.702.21 2.384.628a4.1 4.1 0 0 1 1.57 1.76c.363.755.545 1.621.545 2.598v.54h-7.07c.062.545.201 1.017.416 1.417.215.4.504.711.87.936.364.224.792.336 1.284.336.579 0 1.076-.131 1.49-.394.416-.263.727-.63.933-1.1h1.89c-.302.941-.833 1.688-1.591 2.241-.759.553-1.666.83-2.722.83Zm2.538-5.764c-.12-.756-.397-1.353-.831-1.792-.435-.44-1.003-.66-1.707-.66-.703 0-1.272.22-1.706.66-.435.439-.712 1.036-.832 1.792h5.076ZM99.197 73.216c-.9 0-1.688-.21-2.365-.632a4.178 4.178 0 0 1-1.562-1.746c-.365-.743-.547-1.582-.547-2.518 0-.936.182-1.775.547-2.518a4.178 4.178 0 0 1 1.562-1.746c.677-.421 1.465-.632 2.365-.632 1.19 0 2.148.314 2.872.941.723.628 1.158 1.472 1.304 2.533h-1.918c-.123-.574-.38-1.025-.772-1.354-.393-.328-.888-.493-1.486-.493-.544 0-1.005.138-1.382.412-.377.275-.662.657-.857 1.145-.194.489-.291 1.06-.291 1.712 0 .653.097 1.223.291 1.712.195.488.48.87.857 1.145.377.274.838.412 1.382.412.605 0 1.106-.17 1.502-.51.396-.34.648-.809.756-1.409h1.918c-.136 1.066-.58 1.923-1.33 2.572-.75.65-1.698.974-2.846.974ZM109.148 73.216c-.943 0-1.767-.21-2.471-.632a4.141 4.141 0 0 1-1.611-1.746c-.37-.743-.555-1.582-.555-2.518 0-.936.185-1.775.555-2.518a4.141 4.141 0 0 1 1.61-1.746c.705-.421 1.529-.632 2.472-.632.943 0 1.767.21 2.471.632a4.14 4.14 0 0 1 1.611 1.746c.37.743.555 1.582.555 2.518 0 .936-.185 1.775-.555 2.518a4.14 4.14 0 0 1-1.61 1.746c-.705.421-1.529.632-2.472.632Zm0-1.627c.598 0 1.096-.138 1.496-.412.4-.275.699-.657.898-1.145.2-.489.299-1.06.299-1.712 0-.653-.1-1.223-.3-1.712-.198-.488-.498-.87-.897-1.145-.4-.274-.898-.412-1.496-.412s-1.096.138-1.496.412c-.4.275-.699.657-.898 1.145-.2.489-.299 1.06-.299 1.712 0 .653.1 1.223.299 1.712.2.488.498.87.898 1.145.4.274.898.412 1.496.412ZM115.459 63.64h1.814v1.332c.288-.48.662-.858 1.123-1.134.46-.276 1.015-.414 1.663-.414.677 0 1.25.159 1.72.477a3 3 0 0 1 1.07 1.316c.32-.545.737-.98 1.251-1.305.515-.325 1.12-.488 1.813-.488.667 0 1.238.159 1.712.477.474.318.83.746 1.069 1.285.239.539.358 1.135.358 1.788V73h-1.886v-5.825c0-.626-.152-1.13-.456-1.51-.303-.38-.737-.57-1.301-.57-.54 0-1.043.196-1.51.59-.467.393-.7 1.101-.7 2.124V73h-1.887v-5.825c0-.626-.152-1.13-.455-1.51-.304-.38-.738-.57-1.302-.57-.54 0-1.043.196-1.51.59-.467.393-.7 1.101-.7 2.124V73h-1.886v-9.36ZM135.219 73.216c-.903 0-1.696-.21-2.38-.632a4.154 4.154 0 0 1-1.573-1.746c-.365-.743-.547-1.582-.547-2.518 0-.936.182-1.775.547-2.518a4.154 4.154 0 0 1 1.573-1.746c.684-.421 1.477-.632 2.38-.632.907 0 1.702.21 2.385.628a4.1 4.1 0 0 1 1.57 1.76c.363.755.545 1.621.545 2.598v.54h-7.07c.062.545.2 1.017.415 1.417.215.4.505.711.87.936.364.224.793.336 1.285.336.578 0 1.075-.131 1.49-.394.415-.263.726-.63.933-1.1h1.89c-.303.941-.833 1.688-1.592 2.241-.758.553-1.665.83-2.721.83Zm2.538-5.764c-.12-.756-.398-1.353-.832-1.792-.434-.44-1.003-.66-1.706-.66-.703 0-1.272.22-1.707.66-.434.439-.711 1.036-.831 1.792h5.076ZM149.38 73.216c-.897 0-1.667-.21-2.309-.632-.642-.421-1.13-1-1.465-1.739-.335-.738-.502-1.58-.502-2.525 0-.946.167-1.787.502-2.525a4.007 4.007 0 0 1 1.465-1.74c.642-.42 1.412-.631 2.31-.631.66 0 1.241.127 1.744.382.503.254.919.615 1.247 1.083V63.64h1.887V73h-1.81v-1.36a3.529 3.529 0 0 1-1.274 1.166c-.51.273-1.108.41-1.794.41Zm.35-1.627c.593 0 1.088-.138 1.485-.412a2.5 2.5 0 0 0 .895-1.145c.199-.489.298-1.06.298-1.712 0-.653-.1-1.223-.298-1.712a2.5 2.5 0 0 0-.895-1.145c-.397-.274-.892-.412-1.485-.412-.593 0-1.088.138-1.485.412a2.5 2.5 0 0 0-.894 1.145c-.2.489-.3 1.06-.3 1.712 0 .653.1 1.223.3 1.712.199.488.497.87.894 1.145.397.274.892.412 1.485.412ZM164.59 73.216c-1.053 0-1.983-.168-2.79-.504-.806-.336-1.443-.844-1.91-1.523-.469-.679-.716-1.526-.742-2.541h2.016c.03 1.022.364 1.753 1 2.194.636.44 1.457.66 2.463.66.878 0 1.583-.18 2.115-.541.531-.362.797-.878.797-1.55 0-.377-.092-.687-.275-.93-.184-.244-.523-.466-1.017-.665-.495-.2-1.215-.396-2.16-.59-1.061-.207-1.918-.464-2.57-.773-.653-.308-1.145-.715-1.477-1.222-.33-.506-.496-1.146-.496-1.919 0-.688.195-1.297.586-1.825.392-.528.935-.937 1.631-1.227.696-.29 1.488-.436 2.376-.436 1.7 0 2.98.392 3.84 1.175.86.784 1.307 1.823 1.34 3.116h-1.987c-.052-.864-.334-1.51-.846-1.937-.51-.427-1.293-.64-2.347-.64-.763 0-1.376.157-1.84.471-.463.315-.694.738-.694 1.271 0 .396.078.718.235.965.158.247.467.47.927.668.461.198 1.154.388 2.078.57 1.245.238 2.213.533 2.901.886.69.353 1.172.768 1.448 1.245.276.478.414 1.059.414 1.743 0 .79-.211 1.475-.632 2.055-.421.581-1.01 1.027-1.764 1.338-.755.31-1.628.466-2.62.466ZM175.992 63.424c-.684 0-1.281.138-1.791.414a3.53 3.53 0 0 0-1.27 1.17V63.64h-1.817V76.6h1.89v-4.842c.324.468.738.828 1.242 1.08.504.252 1.086.378 1.746.378.9 0 1.67-.21 2.313-.63a4.007 4.007 0 0 0 1.467-1.737c.336-.738.504-1.581.504-2.529s-.168-1.791-.504-2.529a4.007 4.007 0 0 0-1.467-1.737c-.642-.42-1.413-.63-2.313-.63Zm-.342 1.62c.588 0 1.08.138 1.476.414a2.5 2.5 0 0 1 .89 1.152c.199.492.298 1.062.298 1.71 0 .648-.1 1.218-.297 1.71a2.5 2.5 0 0 1-.891 1.152c-.396.276-.888.414-1.476.414-.6 0-1.098-.138-1.494-.414a2.5 2.5 0 0 1-.891-1.152c-.198-.492-.297-1.062-.297-1.71 0-.648.099-1.218.297-1.71a2.5 2.5 0 0 1 .89-1.152c.397-.276.895-.414 1.495-.414ZM186.15 73.216c-.942 0-1.766-.21-2.47-.632a4.141 4.141 0 0 1-1.612-1.746c-.37-.743-.554-1.582-.554-2.518 0-.936.185-1.775.554-2.518a4.141 4.141 0 0 1 1.611-1.746c.705-.421 1.529-.632 2.472-.632.943 0 1.767.21 2.471.632a4.14 4.14 0 0 1 1.611 1.746c.37.743.555 1.582.555 2.518 0 .936-.185 1.775-.555 2.518a4.14 4.14 0 0 1-1.61 1.746c-.705.421-1.529.632-2.472.632Zm0-1.627c.598 0 1.097-.138 1.497-.412.4-.275.699-.657.898-1.145.199-.489.299-1.06.299-1.712 0-.653-.1-1.223-.3-1.712-.198-.488-.498-.87-.897-1.145-.4-.274-.899-.412-1.496-.412-.598 0-1.096.138-1.496.412-.4.275-.699.657-.898 1.145-.2.489-.299 1.06-.299 1.712 0 .653.1 1.223.299 1.712.199.488.498.87.898 1.145.4.274.898.412 1.496.412ZM192.461 63.64h1.815v1.321c.338-.47.758-.844 1.258-1.121s1.076-.416 1.726-.416c.735 0 1.35.157 1.849.47.498.313.87.738 1.114 1.276.245.538.367 1.139.367 1.804V73h-1.872v-5.825c0-.638-.163-1.145-.49-1.519-.326-.374-.817-.562-1.472-.562-.329 0-.675.074-1.04.22-.365.146-.684.422-.958.828-.273.406-.41.961-.41 1.667V73h-1.887v-9.36ZM206.17 73.216c-1.238 0-2.222-.269-2.952-.806-.73-.538-1.126-1.364-1.188-2.477h1.865c.07.648.293 1.112.67 1.391.376.28.923.42 1.641.42.622 0 1.113-.11 1.473-.332.36-.22.54-.529.54-.925 0-.271-.053-.486-.157-.644-.104-.159-.319-.3-.643-.423-.324-.124-.817-.238-1.48-.344-.938-.16-1.675-.371-2.21-.632-.535-.26-.91-.573-1.125-.938-.215-.364-.322-.812-.322-1.342 0-.84.336-1.507 1.008-2 .672-.493 1.553-.74 2.643-.74 1.252 0 2.223.276 2.912.828.689.552 1.043 1.322 1.062 2.311h-1.814c-.022-.619-.225-1.052-.609-1.298s-.901-.369-1.551-.369c-.516 0-.943.107-1.28.319-.337.212-.506.508-.506.887 0 .272.064.486.193.645.128.158.359.294.693.407.333.112.826.225 1.479.338.926.154 1.649.354 2.167.601.519.247.887.553 1.104.916.217.364.326.817.326 1.36 0 .895-.364 1.593-1.091 2.095-.727.501-1.677.752-2.848.752ZM215.76 73.216c-.943 0-1.767-.21-2.471-.632a4.141 4.141 0 0 1-1.611-1.746c-.37-.743-.555-1.582-.555-2.518 0-.936.185-1.775.555-2.518a4.141 4.141 0 0 1 1.611-1.746c.704-.421 1.528-.632 2.471-.632.944 0 1.767.21 2.472.632a4.14 4.14 0 0 1 1.61 1.746c.37.743.555 1.582.555 2.518 0 .936-.185 1.775-.554 2.518a4.14 4.14 0 0 1-1.611 1.746c-.705.421-1.528.632-2.472.632Zm0-1.627c.598 0 1.097-.138 1.496-.412.4-.275.7-.657.898-1.145.2-.489.3-1.06.3-1.712 0-.653-.1-1.223-.3-1.712-.199-.488-.498-.87-.898-1.145-.4-.274-.898-.412-1.496-.412-.597 0-1.096.138-1.496.412-.4.275-.698.657-.898 1.145-.199.489-.299 1.06-.299 1.712 0 .653.1 1.223.3 1.712.199.488.498.87.897 1.145.4.274.899.412 1.496.412ZM222.071 63.64h1.814v1.591c.327-.619.735-1.057 1.224-1.314.49-.257 1.052-.385 1.685-.385h.72v1.775h-.785c-.559 0-1.043.09-1.452.273-.41.183-.732.49-.967.92-.235.431-.353 1.009-.353 1.734V73h-1.886v-9.36Z"/></g></g></svg>